<svg xmlns="http://www.w3.org/2000/svg" width="24" height="23.975" viewBox="0 0 24 23.975">
  <g id="date-svgrepo-com" transform="translate(0 -0.024)">
    <path id="Path_90" data-name="Path 90" d="M22,2.25H18.75V.75a.75.75,0,0,0-1.5,0h0v1.5h-4.5V.75a.75.75,0,0,0-1.5,0h0v1.5H6.75V.75a.75.75,0,0,0-1.5,0h0v1.5H2a2,2,0,0,0-2,2V22a2,2,0,0,0,2,2H22a2,2,0,0,0,2-2V4.249a2,2,0,0,0-2-2ZM22.5,22a.5.5,0,0,1-.5.5H2a.5.5,0,0,1-.5-.5V4.25a.5.5,0,0,1,.5-.5H5.25v1.5a.75.75,0,0,0,1.5,0h0v-1.5h4.5v1.5a.75.75,0,0,0,1.5,0h0v-1.5h4.5v1.5a.75.75,0,0,0,1.5,0h0v-1.5H22a.5.5,0,0,1,.5.5Z" fill="#008554"/>
    <path id="Path_91" data-name="Path 91" d="M5.25,9h3v2.25h-3Z" fill="#008554"/>
    <path id="Path_92" data-name="Path 92" d="M5.25,12.75h3V15h-3Z" fill="#008554"/>
    <path id="Path_93" data-name="Path 93" d="M5.25,16.5h3v2.25h-3Z" fill="#008554"/>
    <path id="Path_94" data-name="Path 94" d="M10.5,16.5h3v2.25h-3Z" fill="#008554"/>
    <path id="Path_95" data-name="Path 95" d="M10.5,12.75h3V15h-3Z" fill="#008554"/>
    <path id="Path_96" data-name="Path 96" d="M10.5,9h3v2.25h-3Z" fill="#008554"/>
    <path id="Path_97" data-name="Path 97" d="M15.75,16.5h3v2.25h-3Z" fill="#008554"/>
    <path id="Path_98" data-name="Path 98" d="M15.75,12.75h3V15h-3Z" fill="#008554"/>
    <path id="Path_99" data-name="Path 99" d="M15.75,9h3v2.25h-3Z" fill="#008554"/>
  </g>
</svg>
