<svg xmlns="http://www.w3.org/2000/svg" width="30.02" height="29.987" viewBox="0 0 30.02 29.987">
  <g id="dollar-symbol-svgrepo-com" transform="translate(0 -0.266)">
    <g id="Group_116" data-name="Group 116" transform="translate(0 0.266)">
      <path id="Path_102" data-name="Path 102" d="M28.907,337.641a6.008,6.008,0,0,0-2.088.764A36.924,36.924,0,0,0,23,340.63c-.075.05-.174.118-.249.161a4.5,4.5,0,0,1-1.535.628,48.873,48.873,0,0,1-7.543.727l-.261.012a.371.371,0,1,1-.056-.739l6.654-.634a1.4,1.4,0,0,0-.286-2.79l-5.915-.075a6.572,6.572,0,0,1-1.435-.217,9.323,9.323,0,0,0-7.108.416,1.38,1.38,0,0,0-1.28-.659l-2.554.168A1.5,1.5,0,0,0,0,339.213l.41,5.666a1.52,1.52,0,0,0,1.64,1.379l2.554-.168a1.357,1.357,0,0,0,1.168-.82l11.208.485a6,6,0,0,0,3.517-.6l.323-.168,8.468-4.958a1.4,1.4,0,0,0,.727-1.137A1.152,1.152,0,0,0,28.907,337.641ZM2.993,344.916a.839.839,0,1,1,0-1.677.839.839,0,1,1,0,1.677Z" transform="translate(0 -316.275)" fill="#008554"/>
      <path id="Path_103" data-name="Path 103" d="M362.165,331.308a37.882,37.882,0,0,1,3.635-2.069,8.489,8.489,0,0,1,.963-.422,1.43,1.43,0,0,0-1.385-.118c-.951.379-2.7,1.224-3.6,1.709a.088.088,0,0,0-.012.037,2.6,2.6,0,0,1,.13.578,3.011,3.011,0,0,1,.006.472Q362.025,331.4,362.165,331.308Z" transform="translate(-339.291 -308.177)" fill="#008554"/>
      <path id="Path_104" data-name="Path 104" d="M346.819,317.988a1.428,1.428,0,0,0-1.367-.106c-.59.23-1.9.659-2.485.969a2.921,2.921,0,0,1,.665.572c.037-.025.075-.056.118-.081l.429-.236C344.8,318.765,346.136,318.293,346.819,317.988Z" transform="translate(-321.659 -298.032)" fill="#008554"/>
      <path id="Path_105" data-name="Path 105" d="M293.447,9.2a4.654,4.654,0,1,0-6.48-4.281c0,.025.006.05.006.075A8.549,8.549,0,0,1,293.447,9.2Z" transform="translate(-269.138 -0.266)" fill="#008554"/>
      <path id="Path_106" data-name="Path 106" d="M170.727,117.485a6.76,6.76,0,1,0-6.76-6.76A6.759,6.759,0,0,0,170.727,117.485Zm-2.361-4.088c.062-.224.124-.447.193-.665.081-.255.149-.286.385-.168a3.68,3.68,0,0,0,1.274.379,1.525,1.525,0,0,0,.833-.112.647.647,0,0,0,.155-1.137,2.013,2.013,0,0,0-.472-.28,11.622,11.622,0,0,1-1.3-.584,1.846,1.846,0,0,1-1.044-1.758,1.938,1.938,0,0,1,1.417-1.8c.348-.124.348-.124.354-.485v-.367c.006-.273.056-.323.323-.329h.255c.578,0,.578,0,.584.578,0,.41,0,.41.41.478a3.761,3.761,0,0,1,.9.267.264.264,0,0,1,.174.348c-.075.249-.143.5-.224.752s-.149.267-.379.162a2.922,2.922,0,0,0-1.429-.286.987.987,0,0,0-.379.081.541.541,0,0,0-.137.963,2.535,2.535,0,0,0,.621.348,11.611,11.611,0,0,1,1.131.509,2.028,2.028,0,0,1,.652,3.088,2.144,2.144,0,0,1-1.125.721.317.317,0,0,0-.273.36c.006.2,0,.4,0,.6a.249.249,0,0,1-.267.28c-.217.006-.429.006-.646,0a.261.261,0,0,1-.28-.292c0-.143,0-.292-.006-.435-.006-.323-.012-.335-.323-.385a4.128,4.128,0,0,1-1.149-.329C168.31,113.77,168.285,113.7,168.366,113.4Z" transform="translate(-153.78 -97.523)" fill="#008554"/>
    </g>
  </g>
</svg>
