<svg id="upload-svgrepo-com_3_" data-name="upload-svgrepo-com (3)" xmlns="http://www.w3.org/2000/svg" width="18.293" height="18.286" viewBox="0 0 18.293 18.286">
  <g id="Group_158" data-name="Group 158">
    <path id="Path_155" data-name="Path 155" d="M1.32,5.992,4.378,2.7v9.9a.762.762,0,0,0,1.523,0V2.7L8.959,5.992a.763.763,0,0,0,1.12-1.038L5.7.243a.765.765,0,0,0-1.116,0L.2,4.955A.762.762,0,1,0,1.32,5.992Z" transform="translate(14.289 13.369) rotate(180)" fill="#fff"/>
    <path id="Path_156" data-name="Path 156" d="M28.532,341.2a.76.76,0,0,0-.762.762v3.674H12.523v-3.674a.762.762,0,1,0-1.523,0V346.4a.76.76,0,0,0,.762.762h16.77a.76.76,0,0,0,.762-.762v-4.435A.762.762,0,0,0,28.532,341.2Z" transform="translate(-11 -328.873)" fill="#fff"/>
  </g>
</svg>
