<svg id="edit-svgrepo-com_1_" data-name="edit-svgrepo-com (1)" xmlns="http://www.w3.org/2000/svg" width="16.695" height="16.741" viewBox="0 0 16.695 16.741">
  <g id="Group_144" data-name="Group 144">
    <path id="Path_149" data-name="Path 149" d="M74.672,14.312l4.225-1.74a2.349,2.349,0,0,0,.283-.212l6.958-8.483a.759.759,0,0,0-.106-.993L82.728.15a.678.678,0,0,0-.959.106l-6.992,8.48a1.27,1.27,0,0,0-.143.321l-.887,4.508C73.7,14.336,74.32,14.469,74.672,14.312Zm7.7-12.64,2.235,1.846-6.064,7.408L76.33,9.094Zm-6.593,8.8L77.3,11.729l-1.952.805Z" transform="translate(-71.251 0)" fill="#008554"/>
    <path id="Path_150" data-name="Path 150" d="M16.657,384.6H4.731s-2.474.116-2.566-.519c0-.034-.061-.191.259-.58a.717.717,0,0,0-.072-.993.717.717,0,0,0-.993.072c-.676.816-.853,1.525-.532,2.167.87,1.621,3.8,1.239,3.938,1.273H16.657a.71.71,0,0,0,0-1.42Z" transform="translate(-0.672 -369.295)" fill="#008554"/>
  </g>
</svg>
