<svg xmlns="http://www.w3.org/2000/svg" width="30.02" height="30.73" viewBox="0 0 30.02 30.73">
  <g id="Layer_3" data-name="Layer 3" transform="translate(-3.98 -3.27)">
    <circle id="Ellipse_15" data-name="Ellipse 15" cx="6.46" cy="6.46" r="6.46" transform="translate(10.4 3.27)" fill="#008554"/>
    <rect id="Rectangle_109" data-name="Rectangle 109" width="7" height="1.4" transform="translate(21 28)" fill="#008554"/>
    <path id="Path_101" data-name="Path 101" d="M15,30v3a1,1,0,0,0,1,1H33a1,1,0,0,0,1-1V23a1,1,0,0,0-1-1H26V20.53a1,1,0,1,0-2,0V22H22V18.42A32.119,32.119,0,0,0,16.86,18a26,26,0,0,0-11,2.39,3.28,3.28,0,0,0-1.88,3V30Zm17,2H17V24h7v.42a1,1,0,0,0,2,0V24h6Z" fill="#008554"/>
  </g>
</svg>
