<svg xmlns="http://www.w3.org/2000/svg" width="49.656" height="55.615" viewBox="0 0 49.656 55.615">
  <path id="application-documents-svgrepo-com_1_" data-name="application-documents-svgrepo-com (1)" d="M53.958,55.615H18.738a1.373,1.373,0,0,1-1.373-1.373V11.978a1.373,1.373,0,0,1,1.373-1.373h35.22a1.373,1.373,0,0,1,1.373,1.373v2.705H58.8a1.373,1.373,0,1,1,0,2.745H55.331v3.537h1.717a1.373,1.373,0,0,1,0,2.745H55.331v3.537H58.8a1.373,1.373,0,0,1,0,2.745H55.331v3.537h1.717a1.373,1.373,0,0,1,0,2.745H55.331V54.242A1.372,1.372,0,0,1,53.958,55.615ZM20.11,52.87H52.585V13.35H20.11Zm22.808-2.558a6.4,6.4,0,1,1,6.4-6.4A6.41,6.41,0,0,1,42.918,50.312Zm0-10.059a3.657,3.657,0,1,0,3.657,3.657A3.661,3.661,0,0,0,42.918,40.253ZM65.648,45.01h-6.28a1.373,1.373,0,1,1,0-2.745h4.908V2.745H31.8V7.087a1.373,1.373,0,1,1-2.745,0V1.373A1.373,1.373,0,0,1,30.428,0h35.22a1.373,1.373,0,0,1,1.373,1.373V43.637A1.373,1.373,0,0,1,65.648,45.01ZM32.432,40.363H25.746a1.373,1.373,0,0,1,0-2.745h6.686a1.373,1.373,0,0,1,0,2.745Zm14.517-6.076h-21.2a1.373,1.373,0,1,1,0-2.745h21.2a1.373,1.373,0,1,1,0,2.745Zm0-6.076h-21.2a1.373,1.373,0,0,1,0-2.745h21.2a1.373,1.373,0,1,1,0,2.745ZM32.432,22.136H25.746a1.373,1.373,0,1,1,0-2.745h6.686a1.373,1.373,0,1,1,0,2.745Z" transform="translate(-17.365)" fill="#fff"/>
</svg>
