<svg xmlns="http://www.w3.org/2000/svg" width="20" height="17" viewBox="0 0 20 17">
  <path id="pay-svgrepo-com" d="M11.671,8.537a.3.3,0,0,0-.3.3v2.211a.3.3,0,0,0,.3.3h6.663a.3.3,0,0,0,.3-.3V8.833a.3.3,0,0,0-.3-.3ZM15.756,1.5a3.125,3.125,0,0,1,2,.612,2.335,2.335,0,0,1,.67,1.667v2.1a.682.682,0,0,1-1.363,0V3.818a1.077,1.077,0,0,0-.243-.736,2.116,2.116,0,0,0-1.1-.25H2.647A1.821,1.821,0,0,0,1.592,3.1a1.345,1.345,0,0,0-.229.946l0,11.77a1.977,1.977,0,0,0,.308,1.028,1.7,1.7,0,0,0,.953.323H15.737a1.738,1.738,0,0,0,1.1-.2,1.721,1.721,0,0,0,.233-1.086V13.833a.682.682,0,0,1,1.363,0v2.044a2.761,2.761,0,0,1-.615,2.011,2.759,2.759,0,0,1-2.093.61l-13.183,0a2.844,2.844,0,0,1-1.923-.8A3.186,3.186,0,0,1,0,15.877V4.044A2.436,2.436,0,0,1,.694,2.1a3.057,3.057,0,0,1,1.927-.6Zm2.578,5.7A1.647,1.647,0,0,1,20,8.833v2.211a1.647,1.647,0,0,1-1.666,1.628H11.671a1.647,1.647,0,0,1-1.666-1.628V8.833a1.647,1.647,0,0,1,1.666-1.628Zm-5,1.939a.8.8,0,1,0,.833.8A.819.819,0,0,0,13.337,9.144Z" transform="translate(0 -1.5)" fill="#fff"/>
</svg>
