<svg xmlns="http://www.w3.org/2000/svg" width="33" height="33.849" viewBox="0 0 33 33.849">
  <g id="pdf-svgrepo-com" transform="translate(-6.425)">
    <path id="Path_132" data-name="Path 132" d="M34.922,259.971H7.4a.978.978,0,0,1-.978-.978V243.107a.978.978,0,1,1,1.955,0v14.909H33.945v-2.178a.978.978,0,1,1,1.955,0v3.155A.977.977,0,0,1,34.922,259.971Z" transform="translate(-0.001 -226.121)" fill="#507c5c"/>
    <g id="Group_129" data-name="Group 129" transform="translate(7.403 0.978)">
      <path id="Path_133" data-name="Path 133" d="M21.212,25.516V25.2L31.45,14.786v10.73Z" transform="translate(-21.212 -14.786)" fill="#cff09e"/>
      <rect id="Rectangle_115" data-name="Rectangle 115" width="19.455" height="10.823" transform="translate(11.59 13.529)" fill="#cff09e"/>
    </g>
    <g id="Group_130" data-name="Group 130" transform="translate(6.425)">
      <path id="Path_134" data-name="Path 134" d="M38.448,13.529H35.9V.978A.978.978,0,0,0,34.921,0H17.627l-.071,0-.024,0c-.027,0-.054.007-.081.012h-.006c-.029.006-.057.013-.085.021l-.022.007-.063.023L17.255.08A.971.971,0,0,0,17.1.163l-.02.014-.053.04-.019.016c-.022.019-.044.039-.065.06L6.706,10.706a.971.971,0,0,0-.065.073c-.012.015-.023.031-.034.046l-.022.031c-.013.019-.024.04-.035.06l-.013.022c-.011.021-.02.042-.03.064l-.01.022c-.008.021-.015.042-.022.063s-.007.018-.009.027-.01.039-.015.059-.006.022-.008.034-.006.036-.008.055,0,.026-.005.04,0,.035,0,.053,0,.025,0,.038v.317a.978.978,0,0,0,.978.978H17.64a.978.978,0,0,0,.978-.978V1.955H33.944V13.529H18.992a.978.978,0,0,0-.978.978V25.329a.978.978,0,0,0,.978.978H38.447a.978.978,0,0,0,.978-.978V14.506A.978.978,0,0,0,38.448,13.529Zm-29.025-2.8,3.169-3.224,4.071-4.141v7.364ZM37.47,24.352H19.97V15.484h17.5Z" transform="translate(-6.425)" fill="#507c5c"/>
      <path id="Path_135" data-name="Path 135" d="M246.078,255.119a.439.439,0,0,1,.488-.4h1.74a1.77,1.77,0,0,1,1.984,1.946v.042a1.823,1.823,0,0,1-2.068,1.963h-.832V260.5c0,.271-.328.406-.656.406s-.656-.135-.656-.406v-5.381Zm1.311.753v1.785h.832c.471,0,.757-.271.757-.846v-.093c0-.575-.286-.846-.757-.846h-.832Z" transform="translate(-230.234 -237.881)" fill="#507c5c"/>
      <path id="Path_136" data-name="Path 136" d="M320.492,254.721a1.832,1.832,0,0,1,2.068,2v2.191a1.832,1.832,0,0,1-2.068,2H319c-.345,0-.572-.186-.572-.4v-5.389c0-.212.227-.4.572-.4h1.488Zm-.748,1.151v3.883h.748c.471,0,.757-.271.757-.846v-2.191c0-.575-.286-.846-.757-.846h-.748Z" transform="translate(-297.805 -237.881)" fill="#507c5c"/>
      <path id="Path_137" data-name="Path 137" d="M393.457,255.127c0-.271.286-.406.572-.406h2.917c.277,0,.4.3.4.567,0,.313-.143.584-.4.584h-2.177v1.43h1.269c.252,0,.4.245.4.516,0,.229-.118.5-.4.5h-1.269V260.5c0,.271-.328.406-.656.406s-.656-.135-.656-.406v-5.372Z" transform="translate(-367.869 -237.881)" fill="#507c5c"/>
    </g>
  </g>
</svg>
