<svg xmlns="http://www.w3.org/2000/svg" width="35.31" height="36" viewBox="0 0 35.31 36">
  <g id="png-svgrepo-com" transform="translate(-4.908)">
    <path id="Path_138" data-name="Path 138" d="M35.4,261.022H5.956a1.046,1.046,0,0,1-1.046-1.046v-16.89a1.046,1.046,0,1,1,2.092,0V258.93H34.355v-2.309a1.046,1.046,0,0,1,2.092,0v3.355A1.046,1.046,0,0,1,35.4,261.022Z" transform="translate(-0.002 -225.022)" fill="#2d527c"/>
    <g id="Group_131" data-name="Group 131" transform="translate(5.954 1.046)">
      <path id="Path_139" data-name="Path 139" d="M19.786,26.284v-.337L30.74,14.876V26.284Z" transform="translate(-19.786 -14.876)" fill="#cee8fa"/>
      <rect id="Rectangle_116" data-name="Rectangle 116" width="20.817" height="11.507" transform="translate(12.401 14.383)" fill="#cee8fa"/>
    </g>
    <g id="Group_132" data-name="Group 132" transform="translate(4.908)">
      <path id="Path_140" data-name="Path 140" d="M39.172,14.383H36.445V1.046A1.046,1.046,0,0,0,35.4,0H16.908l-.038,0-.036,0A1.054,1.054,0,0,0,16.7.021h0a1.029,1.029,0,0,0-.127.035l-.033.012a1.058,1.058,0,0,0-.12.053l0,0A1.048,1.048,0,0,0,16.3.2L16.27.219a1.055,1.055,0,0,0-.105.092L5.21,11.381a1.033,1.033,0,0,0-.069.078c-.015.018-.027.037-.041.055l-.02.027c-.015.023-.028.046-.041.07l-.01.018c-.013.024-.024.049-.035.074l-.008.018c-.01.024-.018.048-.026.072l-.008.024c-.007.022-.012.045-.017.067s-.006.021-.008.032-.006.041-.009.062,0,.026-.005.039,0,.04,0,.06,0,.026,0,.038v.337A1.046,1.046,0,0,0,5.954,13.5H16.908a1.046,1.046,0,0,0,1.046-1.046V2.092h16.4V14.383h-16a1.046,1.046,0,0,0-1.046,1.046V26.935a1.046,1.046,0,0,0,1.046,1.046H39.172a1.046,1.046,0,0,0,1.046-1.046V15.429A1.046,1.046,0,0,0,39.172,14.383ZM15.862,11.408H8.127l3.958-4L15.863,3.59v7.818ZM38.126,25.889H19.4V16.475H38.126Z" transform="translate(-4.908)" fill="#2d527c"/>
      <path id="Path_141" data-name="Path 141" d="M239.06,255.139a.469.469,0,0,1,.522-.423h1.862a1.888,1.888,0,0,1,2.123,2.069v.045a1.945,1.945,0,0,1-2.213,2.087h-.891v1.943c0,.288-.351.432-.7.432s-.7-.144-.7-.432v-5.721Zm1.4.8v1.9h.891c.5,0,.81-.288.81-.9v-.1c0-.612-.306-.9-.81-.9Z" transform="translate(-222.596 -236.806)" fill="#2d527c"/>
      <path id="Path_142" data-name="Path 142" d="M314.965,260.911l-1.709-3.112v3.058c0,.288-.351.432-.7.432s-.7-.144-.7-.432v-5.712c0-.3.351-.432.7-.432.5,0,.693.045,1.035.7l1.457,2.78v-3.058c0-.3.351-.423.7-.423s.7.126.7.423v5.721c0,.288-.351.432-.7.432A.784.784,0,0,1,314.965,260.911Z" transform="translate(-290.271 -236.803)" fill="#2d527c"/>
      <path id="Path_143" data-name="Path 143" d="M392.231,255.939c-.513,0-.81.288-.81.9v2.384c0,.612.3.9.8.9s.81-.288.81-.9v-.306H392.5c-.27,0-.423-.261-.423-.54,0-.261.153-.54.423-.54h1.511a.415.415,0,0,1,.423.441v.945a2.21,2.21,0,0,1-4.416,0v-2.384a1.942,1.942,0,0,1,2.159-2.123c1.286,0,2.258.648,2.258,1.79,0,.54-.225.666-.7.666-.378,0-.693-.1-.7-.423S393,255.939,392.231,255.939Z" transform="translate(-362.94 -236.806)" fill="#2d527c"/>
    </g>
  </g>
</svg>
