<svg xmlns="http://www.w3.org/2000/svg" width="53.281" height="53.26" viewBox="0 0 53.281 53.26">
  <g id="upload-svgrepo-com_2_" data-name="upload-svgrepo-com (2)" transform="translate(-21 -30.986)">
    <g id="Group_133" data-name="Group 133" transform="translate(21 30.986)">
      <path id="Path_144" data-name="Path 144" d="M122.18,28.439l8.905-9.58V47.707a2.218,2.218,0,0,0,4.436,0V18.86l8.905,9.58a2.224,2.224,0,0,0,3.262-3.023L134.935,11.694a2.228,2.228,0,0,0-3.251,0L118.929,25.417a2.22,2.22,0,1,0,3.251,3.023Z" transform="translate(-106.664 -10.986)" fill="#008554"/>
      <path id="Path_145" data-name="Path 145" d="M62.062,341.2a2.214,2.214,0,0,0-2.218,2.218v10.7H15.436v-10.7a2.218,2.218,0,0,0-4.436,0v12.918a2.214,2.214,0,0,0,2.218,2.218H62.062a2.214,2.214,0,0,0,2.218-2.218V343.418A2.221,2.221,0,0,0,62.062,341.2Z" transform="translate(-11 -305.294)" fill="#008554"/>
    </g>
  </g>
</svg>
