<svg xmlns="http://www.w3.org/2000/svg" width="18.293" height="18.286" viewBox="0 0 18.293 18.286">
  <g id="upload-svgrepo-com_3_" data-name="upload-svgrepo-com (3)" transform="translate(-937.854 -42.75)">
    <g id="Group_158" data-name="Group 158" transform="translate(926.853 31.764)">
      <path id="Path_155" data-name="Path 155" d="M119.655,16.978l3.058-3.289v9.9a.762.762,0,0,0,1.523,0v-9.9l3.058,3.289a.763.763,0,0,0,1.12-1.038l-4.379-4.711a.765.765,0,0,0-1.116,0l-4.379,4.711a.762.762,0,1,0,1.116,1.038Z" transform="translate(-103.328)" fill="#fff"/>
      <path id="Path_156" data-name="Path 156" d="M28.532,341.2a.76.76,0,0,0-.762.762v3.674H12.523v-3.674a.762.762,0,1,0-1.523,0V346.4a.76.76,0,0,0,.762.762h16.77a.76.76,0,0,0,.762-.762v-4.435A.762.762,0,0,0,28.532,341.2Z" transform="translate(0 -317.886)" fill="#fff"/>
    </g>
  </g>
</svg>
