<svg xmlns="http://www.w3.org/2000/svg" width="22" height="22" viewBox="0 0 22 22">
  <g id="user-circle-svgrepo-com" transform="translate(-2 -2)">
    <path id="Path_74" data-name="Path 74" d="M12,8a1.913,1.913,0,0,0-2,2,1.913,1.913,0,0,0,2,2,1.913,1.913,0,0,0,2-2A1.913,1.913,0,0,0,12,8Z" transform="translate(1 0.75)" fill="none"/>
    <path id="Path_75" data-name="Path 75" d="M13,4C8.121,4,4,7.663,4,12a7.575,7.575,0,0,0,2.689,5.641,5.684,5.684,0,0,1,5.186-3.068h2.25a5.684,5.684,0,0,1,5.186,3.068A7.575,7.575,0,0,0,22,12C22,7.663,17.879,4,13,4Zm0,10c-2.565,0-4.5-1.72-4.5-4S10.435,6,13,6s4.5,1.72,4.5,4S15.565,14,13,14Z" transform="translate(0)" fill="none"/>
    <path id="Path_76" data-name="Path 76" d="M13,16.572H11a3,3,0,0,0-2.926,2.354,7.716,7.716,0,0,0,7.852,0A3,3,0,0,0,13,16.572Z" transform="translate(1 2)" fill="none"/>
    <path id="Path_77" data-name="Path 77" d="M13,2A11.147,11.147,0,0,0,2,13a11.054,11.054,0,0,0,4.4,8.716V21.8h.112a10.666,10.666,0,0,0,12.976,0H19.6v-.084A11.053,11.053,0,0,0,24,13,11.147,11.147,0,0,0,13,2ZM8.681,20.62A3.3,3.3,0,0,1,11.9,18.03h2.2a3.3,3.3,0,0,1,3.219,2.589,8.491,8.491,0,0,1-8.637,0Zm10.49-1.415A5.508,5.508,0,0,0,14.1,15.83H11.9a5.508,5.508,0,0,0-5.071,3.375A8.776,8.776,0,0,1,4.2,13,8.917,8.917,0,0,1,13,4.2,8.917,8.917,0,0,1,21.8,13a8.776,8.776,0,0,1-2.629,6.205Z" transform="translate(0 0)" fill="#008554"/>
    <path id="Path_78" data-name="Path 78" d="M12,6a3.913,3.913,0,0,0-4,4,3.913,3.913,0,0,0,4,4,3.913,3.913,0,0,0,4-4A3.913,3.913,0,0,0,12,6Zm0,6a1.913,1.913,0,0,1-2-2,1.913,1.913,0,0,1,2-2,1.913,1.913,0,0,1,2,2A1.913,1.913,0,0,1,12,12Z" transform="translate(1 0.667)" fill="#008554"/>
  </g>
</svg>
