<svg xmlns="http://www.w3.org/2000/svg" width="24.178" height="14.344" viewBox="0 0 24.178 14.344">
  <g id="view-svgrepo-com" transform="translate(4 -11.774)">
    <g id="Group_136" data-name="Group 136" transform="translate(-4 11.774)">
      <path id="Path_147" data-name="Path 147" d="M23.746,23.049c-.211-.27-5.246-6.619-11.657-6.619S.643,22.779.432,23.049L0,23.6l.432.553c.211.27,5.246,6.619,11.657,6.619s11.445-6.349,11.657-6.619l.432-.553Zm-11.657,5.93c-4.509,0-8.445-3.9-9.768-5.377,1.324-1.473,5.26-5.376,9.768-5.376s8.444,3.9,9.768,5.376C20.533,25.075,16.6,28.979,12.089,28.979Z" transform="translate(0 -16.43)" fill="#008554"/>
      <path id="Path_148" data-name="Path 148" d="M28.894,23.983a4.912,4.912,0,1,0,4.913,4.912A4.918,4.918,0,0,0,28.894,23.983Zm0,8.029a3.117,3.117,0,1,1,3.117-3.117A3.121,3.121,0,0,1,28.894,32.012Z" transform="translate(-16.805 -21.723)" fill="#008554"/>
    </g>
  </g>
</svg>
